<svg width="25" height="25" viewBox="0 0 25 25" fill="none" xmlns="http://www.w3.org/2000/svg">
<path d="M10 9H11V17H10V9ZM12 9H13V17H12V9ZM14 9H15V17H14V9ZM6 6H19V7H6V6ZM15 6H14V5.5C14 5.2 13.8 5 13.5 5H11.5C11.2 5 11 5.2 11 5.5V6H10V5.5C10 4.65 10.65 4 11.5 4H13.5C14.35 4 15 4.65 15 5.5V6Z" fill="#5200FF"/>
<path d="M15.5 20.0002H9.5C8.7 20.0002 8 19.3502 7.9 18.5502L7 6.5502L8 6.4502L8.9 18.4502C8.9 18.7502 9.2 19.0002 9.5 19.0002H15.5C15.8 19.0002 16.05 18.7502 16.1 18.4502L17 6.4502L18 6.5502L17.1 18.5502C17 19.3502 16.3 20.0002 15.5 20.0002Z" fill="#5200FF"/>
</svg>
