<svg width="51" height="51" viewBox="0 0 51 51" fill="none" xmlns="http://www.w3.org/2000/svg">
<path d="M25.6389 15.3479C20.2222 15.3479 15.9167 19.6535 15.9167 25.0701C15.9167 30.4868 20.2222 34.7923 25.6389 34.7923C31.0556 34.7923 35.3611 30.4868 35.3611 25.0701C35.3611 19.6535 31.0556 15.3479 25.6389 15.3479ZM25.6389 32.0146C21.75 32.0146 18.6944 28.959 18.6944 25.0701C18.6944 21.1812 21.75 18.1257 25.6389 18.1257C29.5278 18.1257 32.5833 21.1812 32.5833 25.0701C32.5833 28.959 29.5278 32.0146 25.6389 32.0146Z" fill="white" fill-opacity="0.9"/>
<path d="M46.0555 20.4868L42.1667 19.2368L41.3333 17.1535L43.2778 13.5423C43.6944 12.709 43.5555 11.5979 42.8611 10.9035L39.5278 7.57012C38.8333 6.87568 37.7222 6.73679 36.8889 7.15346L33.2778 9.0979L31.1944 8.26457L29.9444 4.37568C29.6667 3.54234 28.8333 2.8479 27.8611 2.8479H23.1389C22.1667 2.8479 21.3333 3.54234 21.1944 4.51457L19.9444 8.40346C19.1111 8.54234 18.4167 8.82012 17.7222 9.23679L14.1111 7.29234C13.2778 6.87568 12.1667 7.01457 11.4722 7.70901L8.13888 11.0423C7.44444 11.7368 7.30555 12.8479 7.72222 13.6812L9.52777 17.1535C9.24999 17.8479 8.97222 18.6812 8.69444 19.3757L4.80555 20.6257C3.97222 20.9035 3.27777 21.7368 3.27777 22.709V27.4312C3.27777 28.4035 3.97222 29.2368 4.94444 29.5146L8.83333 30.7646L9.66666 32.8479L7.72222 36.459C7.30555 37.2923 7.44444 38.4035 8.13888 39.0979L11.4722 42.4312C12.1667 43.1257 13.2778 43.2646 14.1111 42.8479L17.7222 40.9035L19.8055 41.7368L21.0555 45.7646C21.3333 46.5979 22.1667 47.2923 23.1389 47.2923H27.8611C28.8333 47.2923 29.6667 46.5979 29.9444 45.7646L31.1944 41.7368L33.2778 40.9035L36.8889 42.8479C37.7222 43.2646 38.8333 43.1257 39.5278 42.4312L42.8611 39.0979C43.5555 38.4035 43.6944 37.2923 43.2778 36.459L41.3333 32.8479L42.1667 30.7646L46.1944 29.5146C47.0278 29.2368 47.7222 28.4035 47.7222 27.4312V22.709C47.7222 21.7368 47.0278 20.7646 46.0555 20.4868ZM44.9444 27.0146L39.9444 28.5423L39.8055 29.2368L38.5555 32.1535L38.1389 32.8479L40.6389 37.4312L37.8611 40.209L33.2778 37.709L32.5833 38.1257C31.6111 38.6812 30.6389 39.0979 29.6667 39.3757L28.9722 39.5146L27.4444 44.5146H23.5555L22.0278 39.5146L21.3333 39.3757L18.4167 38.1257L17.7222 37.709L13.1389 40.209L10.3611 37.4312L12.8611 32.8479L12.4444 32.1535C11.8889 31.1812 11.4722 30.209 11.1944 29.2368L11.0555 28.5423L6.05555 27.0146V23.1257L10.7778 21.7368L11.0555 21.0423C11.3333 19.9312 11.75 18.959 12.3055 17.9868L12.7222 17.2923L10.3611 12.709L13.1389 9.93123L17.5833 12.4312L18.2778 12.0146C19.25 11.459 20.2222 11.0423 21.3333 10.7646L22.0278 10.4868L23.5555 5.62568H27.4444L28.9722 10.4868L29.6667 10.7646C30.6389 11.0423 31.6111 11.459 32.5833 12.0146L33.2778 12.4312L37.8611 9.93123L40.6389 12.709L38.1389 17.2923L38.5555 17.9868C39.1111 18.959 39.5278 19.9312 39.8055 20.9035L39.9444 21.5979L44.9444 23.1257V27.0146Z" fill="white" fill-opacity="0.9"/>
</svg>
