<svg width="15" height="15" viewBox="0 0 15 15" fill="none" xmlns="http://www.w3.org/2000/svg">
<path fill-rule="evenodd" clip-rule="evenodd" d="M0.9375 7.5C0.9375 9.24048 1.6289 10.9097 2.85961 12.1404C4.09032 13.3711 5.75952 14.0625 7.5 14.0625C9.24048 14.0625 10.9097 13.3711 12.1404 12.1404C13.3711 10.9097 14.0625 9.24048 14.0625 7.5C14.0625 5.75952 13.3711 4.09032 12.1404 2.85961C10.9097 1.6289 9.24048 0.9375 7.5 0.9375C5.75952 0.9375 4.09032 1.6289 2.85961 2.85961C1.6289 4.09032 0.9375 5.75952 0.9375 7.5ZM15 7.5C15 9.48912 14.2098 11.3968 12.8033 12.8033C11.3968 14.2098 9.48912 15 7.5 15C5.51088 15 3.60322 14.2098 2.1967 12.8033C0.790176 11.3968 0 9.48912 0 7.5C0 5.51088 0.790176 3.60322 2.1967 2.1967C3.60322 0.790176 5.51088 0 7.5 0C9.48912 0 11.3968 0.790176 12.8033 2.1967C14.2098 3.60322 15 5.51088 15 7.5ZM4.21875 7.03125C4.09443 7.03125 3.9752 7.08064 3.88729 7.16854C3.79939 7.25645 3.75 7.37568 3.75 7.5C3.75 7.62432 3.79939 7.74355 3.88729 7.83146C3.9752 7.91936 4.09443 7.96875 4.21875 7.96875H9.64969L7.63688 9.98063C7.59329 10.0242 7.55872 10.0759 7.53513 10.1329C7.51155 10.1898 7.49941 10.2509 7.49941 10.3125C7.49941 10.3741 7.51155 10.4352 7.53513 10.4921C7.55872 10.5491 7.59329 10.6008 7.63688 10.6444C7.68046 10.688 7.7322 10.7225 7.78914 10.7461C7.84608 10.7697 7.90711 10.7818 7.96875 10.7818C8.03039 10.7818 8.09142 10.7697 8.14836 10.7461C8.2053 10.7225 8.25704 10.688 8.30062 10.6444L11.1131 7.83187C11.1568 7.78833 11.1914 7.7366 11.215 7.67966C11.2387 7.62271 11.2508 7.56166 11.2508 7.5C11.2508 7.43834 11.2387 7.37729 11.215 7.32034C11.1914 7.26339 11.1568 7.21167 11.1131 7.16813L8.30062 4.35563C8.25704 4.31204 8.2053 4.27747 8.14836 4.25388C8.09142 4.2303 8.03039 4.21816 7.96875 4.21816C7.90711 4.21816 7.84608 4.2303 7.78914 4.25388C7.7322 4.27747 7.68046 4.31204 7.63688 4.35563C7.59329 4.39921 7.55872 4.45095 7.53513 4.50789C7.51155 4.56483 7.49941 4.62586 7.49941 4.6875C7.49941 4.74914 7.51155 4.81017 7.53513 4.86711C7.55872 4.92405 7.59329 4.97579 7.63688 5.01937L9.64969 7.03125H4.21875Z" fill="#5200FF"/>
</svg>
