<svg width="33" height="36" viewBox="0 0 33 36" fill="none" xmlns="http://www.w3.org/2000/svg">
<path d="M9.98958 0.361694C10.8875 0.361694 11.7485 0.718371 12.3834 1.35326C13.0183 1.98815 13.375 2.84924 13.375 3.74711V32.3929C13.375 33.2908 13.0183 34.1519 12.3834 34.7868C11.7485 35.4217 10.8875 35.7784 9.98958 35.7784H4.26042C3.81584 35.7784 3.37561 35.6908 2.96487 35.5207C2.55414 35.3505 2.18093 35.1012 1.86657 34.7868C1.23168 34.1519 0.875 33.2908 0.875 32.3929V3.74711C0.875 2.84924 1.23168 1.98815 1.86657 1.35326C2.50145 0.718371 3.36255 0.361694 4.26042 0.361694H9.98958ZM28.7396 0.361694C29.6375 0.361694 30.4985 0.718371 31.1334 1.35326C31.7683 1.98815 32.125 2.84924 32.125 3.74711V32.3929C32.125 33.2908 31.7683 34.1519 31.1334 34.7868C30.4985 35.4217 29.6375 35.7784 28.7396 35.7784H23.0104C22.1125 35.7784 21.2515 35.4217 20.6166 34.7868C19.9817 34.1519 19.625 33.2908 19.625 32.3929V3.74711C19.625 2.84924 19.9817 1.98815 20.6166 1.35326C21.2515 0.718371 22.1125 0.361694 23.0104 0.361694H28.7396ZM9.98958 2.96586H4.26042C4.05322 2.96586 3.8545 3.04817 3.70799 3.19468C3.56148 3.3412 3.47917 3.53991 3.47917 3.74711V32.3929C3.47917 32.8242 3.82917 33.1742 4.26042 33.1742H9.98958C10.1968 33.1742 10.3955 33.0919 10.542 32.9454C10.6885 32.7989 10.7708 32.6001 10.7708 32.3929V3.74711C10.7708 3.53991 10.6885 3.3412 10.542 3.19468C10.3955 3.04817 10.1968 2.96586 9.98958 2.96586ZM28.7396 2.96586H23.0104C22.8032 2.96586 22.6045 3.04817 22.458 3.19468C22.3115 3.3412 22.2292 3.53991 22.2292 3.74711V32.3929C22.2292 32.8242 22.5792 33.1742 23.0104 33.1742H28.7396C28.9468 33.1742 29.1455 33.0919 29.292 32.9454C29.4385 32.7989 29.5208 32.6001 29.5208 32.3929V3.74711C29.5208 3.53991 29.4385 3.3412 29.292 3.19468C29.1455 3.04817 28.9468 2.96586 28.7396 2.96586Z" fill="white" fill-opacity="0.9"/>
</svg>
