<svg width="37" height="41" viewBox="0 0 37 41" fill="none" xmlns="http://www.w3.org/2000/svg">
<path d="M34.8984 19.0423L4.41748 0.899083C4.06168 0.687313 3.65614 0.573579 3.24211 0.569452C2.82808 0.565326 2.42034 0.670955 2.0604 0.875591C1.70045 1.08023 1.40114 1.37657 1.19292 1.73445C0.984701 2.09234 0.875007 2.499 0.875 2.91305V38.4738C0.875483 38.8841 0.983614 39.2872 1.18859 39.6426C1.39357 39.9981 1.68822 40.2936 2.04313 40.4996C2.39803 40.7055 2.80076 40.8148 3.2111 40.8164C3.62143 40.818 4.02502 40.712 4.38154 40.5089L34.8623 23.0916C35.218 22.8883 35.5142 22.5954 35.7214 22.242C35.9285 21.8886 36.0395 21.487 36.0431 21.0774C36.0467 20.6678 35.9429 20.2643 35.742 19.9073C35.5411 19.5503 35.2505 19.2519 34.8984 19.0423ZM4 37.1276V4.28727L32.1488 21.0425L4 37.1276Z" fill="white" fill-opacity="0.9"/>
</svg>
