<svg width="35" height="36" viewBox="0 0 35 36" fill="none" xmlns="http://www.w3.org/2000/svg">
<path d="M32.3438 0.882568H2.65625C2.03486 0.883266 1.43913 1.13042 0.999739 1.56981C0.560352 2.00919 0.313198 2.60493 0.3125 3.22632V32.9138C0.313198 33.5352 0.560352 34.1309 0.999739 34.5703C1.43913 35.0097 2.03486 35.2569 2.65625 35.2576H32.3438C32.9651 35.2569 33.5609 35.0097 34.0003 34.5703C34.4396 34.1309 34.6868 33.5352 34.6875 32.9138V3.22632C34.6868 2.60493 34.4396 2.00919 34.0003 1.56981C33.5609 1.13042 32.9651 0.883266 32.3438 0.882568ZM31.5625 32.1326H3.4375V4.00757H31.5625V32.1326Z" fill="white" fill-opacity="0.9"/>
</svg>
