<svg width="262" height="267" viewBox="0 0 262 267" fill="none" xmlns="http://www.w3.org/2000/svg">
<path d="M40.0609 0C38.0394 0 36.1007 0.790176 34.6713 2.1967C33.2419 3.60322 32.4389 5.51088 32.4389 7.5V22.5C32.4389 24.4891 33.2419 26.3968 34.6713 27.8033C36.1007 29.2098 38.0394 30 40.0609 30H51.4938V49.8563C-30.9605 59.1937 -95.2288 128.284 -95.2288 211.875C-95.2288 301.811 -20.8499 375 70.5487 375C161.947 375 236.326 301.811 236.326 211.875C236.352 181.092 227.469 150.939 210.716 124.943L226.867 112.076L234.062 120.821C234.692 121.587 235.469 122.223 236.348 122.694C237.228 123.164 238.193 123.46 239.188 123.563C240.184 123.666 241.19 123.576 242.15 123.297C243.11 123.017 244.005 122.555 244.783 121.935L256.635 112.493C258.204 111.24 259.203 109.426 259.413 107.448C259.623 105.471 259.027 103.492 257.755 101.948L219.386 55.3125C218.757 54.5467 217.98 53.9104 217.101 53.4399C216.221 52.9695 215.256 52.6741 214.261 52.5707C213.265 52.4673 212.259 52.5578 211.299 52.8372C210.339 53.1165 209.444 53.5792 208.666 54.1987L196.814 63.6413C195.245 64.8939 194.246 66.7082 194.035 68.6855C193.825 70.6629 194.422 72.6414 195.694 74.1863L202.892 82.9313L186.81 95.7337C161.136 70.8412 127.267 54.1312 89.6036 49.8638V30H101.036C103.058 30 104.997 29.2098 106.426 27.8033C107.855 26.3968 108.658 24.4891 108.658 22.5V7.5C108.658 5.51088 107.855 3.60322 106.426 2.1967C104.997 0.790176 103.058 0 101.036 0L40.0609 0ZM70.5487 75C147.53 75 209.649 136.125 209.649 211.875C209.649 287.625 147.53 348.75 70.5487 348.75C-6.43303 348.75 -68.5519 287.625 -68.5519 211.875C-68.5519 136.125 -6.43303 75 70.5487 75ZM70.5563 102.911L70.5487 211.875L159.093 277.301C171.444 261.116 178.97 241.866 180.826 221.709C182.682 201.551 178.796 181.284 169.604 163.178C160.411 145.072 146.275 129.844 128.781 119.2C111.286 108.556 91.1248 102.917 70.5563 102.915V102.911Z" fill="#5200FF" fill-opacity="0.75"/>
</svg>
